<svg width="145" height="37" viewBox="0 0 145 37" fill="none" xmlns="http://www.w3.org/2000/svg">
<path d="M27.2188 0.777832V36.0778H19.6135V33.6778C17.9124 35.5778 15.5107 36.7778 12.1084 36.7778C5.5038 36.7778 0 30.9778 0 23.4778C0 15.9778 5.5038 10.1778 12.1084 10.1778C15.5107 10.1778 18.0124 11.3778 19.6135 13.2778V0.777832H27.2188ZM19.6135 23.4778C19.6135 19.6778 17.1118 17.2778 13.6094 17.2778C10.107 17.2778 7.60524 19.6778 7.60524 23.4778C7.60524 27.2778 10.107 29.6778 13.6094 29.6778C17.1118 29.5778 19.6135 27.2778 19.6135 23.4778Z" fill="black"/>
<path d="M43.7298 29.9777C45.8313 29.9777 47.5325 29.1777 48.5332 28.0777L54.6374 31.5777C52.1356 34.9777 48.4331 36.7777 43.6298 36.7777C35.0238 36.7777 29.6201 30.9777 29.6201 23.4777C29.6201 15.9777 35.0238 10.1777 43.0294 10.1777C50.4345 10.1777 55.8382 15.8777 55.8382 23.4777C55.8382 24.5777 55.7381 25.5777 55.538 26.4777H37.6256C38.6263 29.0777 40.9279 29.9777 43.7298 29.9777ZM48.333 20.8777C47.5325 17.9777 45.2309 16.8777 42.9293 16.8777C40.0273 16.8777 38.126 18.2777 37.4255 20.8777H48.333Z" fill="black"/>
<path d="M82.1563 10.8779L72.8499 36.0779H64.2439L54.9375 10.8779H63.3433L68.647 26.8779L73.9506 10.8779C73.9506 10.8779 82.1563 10.8779 82.1563 10.8779Z" fill="black"/>
<path d="M83.458 10.8779H91.0633V36.0779H83.458V10.8779Z" fill="black"/>
<path d="M93.665 23.4777C93.665 15.9777 99.369 10.1777 107.074 10.1777C111.978 10.1777 116.281 12.7777 118.482 16.6777L111.878 20.4777C110.977 18.6777 109.176 17.6777 106.974 17.6777C103.672 17.6777 101.27 20.0777 101.27 23.4777C101.27 26.9777 103.672 29.2777 106.974 29.2777C109.176 29.2777 111.077 28.1777 111.878 26.4777L118.482 30.2777C116.381 34.1777 112.078 36.7777 107.074 36.7777C99.369 36.7777 93.665 30.9777 93.665 23.4777Z" fill="black"/>
<path d="M132.892 29.9777C134.993 29.9777 136.695 29.1777 137.695 28.0777L143.799 31.5777C141.298 34.9777 137.595 36.7777 132.792 36.7777C124.186 36.7777 118.782 30.9777 118.782 23.4777C118.782 15.9777 124.286 10.1777 132.191 10.1777C139.597 10.1777 145 15.8777 145 23.4777C145 24.5777 144.9 25.5777 144.7 26.4777H126.788C127.788 29.0777 130.09 29.9777 132.892 29.9777ZM137.595 20.8777C136.795 17.9777 134.493 16.8777 132.191 16.8777C129.289 16.8777 127.388 18.2777 126.688 20.8777H137.595Z" fill="black"/>
<path d="M83.458 0.777832V10.8778L91.0633 0.777832H83.458Z" fill="#510094"/>
</svg>
